<?xml version="1.0" encoding="iso-8859-1"?>
<!-- Generator: Adobe Illustrator 16.0.0, SVG Export Plug-In . SVG Version: 6.00 Build 0)  -->
<!DOCTYPE svg PUBLIC "-//W3C//DTD SVG 1.1//EN" "http://www.w3.org/Graphics/SVG/1.1/DTD/svg11.dtd">
<svg version="1.1" id="Capa_1" xmlns="http://www.w3.org/2000/svg" xmlns:xlink="http://www.w3.org/1999/xlink" x="0px" y="0px"
	 width="187.482px" height="187.482px" viewBox="0 0 187.482 187.482" style="enable-background:new 0 0 187.482 187.482;"
	 xml:space="preserve">
<g>
	<g>
		<path d="M158.221,39.64c-16.2-11.917-36.047-18.217-57.396-18.217c-18.445,0-36.029,4.673-49.036,11.119
			c-0.027-0.013-0.051-0.028-0.079-0.04c-0.906-0.409-22.306-9.906-32.932,0.159c-1.353,1.282-1.411,3.418-0.129,4.771
			c1.282,1.353,3.418,1.41,4.771,0.129c4.684-4.437,14.265-2.743,20.733-0.695c-5.412,3.513-9.498,7.311-11.803,11.04
			c-4.434-0.627-21.042-2.203-31.286,7.419c-1.359,1.276-1.426,3.412-0.149,4.771c0.665,0.707,1.561,1.064,2.461,1.064
			c0.828,0,1.658-0.303,2.31-0.915c7.277-6.835,19.657-6.312,24.498-5.798c-0.064,2.202,0.597,4.265,1.984,6.048
			c2.204,2.834,4.845,5.103,7.799,6.925c-5.599,2.882-14.984,6.651-24.211,5.536c-1.847-0.224-3.532,1.095-3.756,2.945
			c-0.224,1.85,1.095,3.532,2.945,3.756c1.409,0.17,2.813,0.248,4.205,0.248c12.644,0,24.264-6.447,28.317-8.963
			c7.03,2.453,15.02,3.316,22.9,3.562c-6.017,5.689-18.879,14.367-42.3,15.868c-1.86,0.119-3.272,1.724-3.152,3.584
			c0.114,1.785,1.599,3.158,3.365,3.158c0.072,0,0.146-0.002,0.219-0.006c32.849-2.107,47.036-17.42,50.896-22.542
			c3.556-0.045,7.119-0.151,10.592-0.257c4.433-0.134,8.621-0.261,12.666-0.261c8.81,0,15.24,0.692,19.738,2.284
			c0.025,0.01,0.052,0.019,0.076,0.029c5.726,2.05,8.293,5.575,8.633,11.013c0.582,9.321-2.357,17.237-8.909,23.887
			c-0.205,0.165-0.391,0.35-0.55,0.555c-4.729,4.607-11.234,8.594-19.554,12.004c-2.56,1.049-5.206,2.002-7.901,2.877
			c-5.549-0.859-37.351-5.666-53.768-5.666c-6.819,0-11.276,0.691-12.423,4.133c-0.526,1.58-0.356,3.231,0.495,4.777
			c1.593,2.893,5.901,5.291,10.303,7.086c-0.744,0.118-1.439,0.236-2.075,0.355c-2.734,0.512-6.479,1.212-7.173,4.27
			c-0.187,0.826-0.351,2.922,2.168,4.553l0.91,0.592c8.086,5.268,29.567,19.263,60.074,19.263c17.024,0,34.378-4.36,51.58-12.962
			c5.789-2.895,11.662-7.021,17.094-11.919c0.073-0.06,0.143-0.124,0.211-0.19c3.661-3.322,7.119-6.99,10.201-10.881
			c6.347-8.008,14.188-20.803,15.513-36.287C188.501,79.747,184.433,58.923,158.221,39.64z M180.646,92.141
			c-11.803,10.007-35.33,2.884-42.811,0.243c0.117-1.767,0.121-3.576,0.005-5.43c-0.298-4.769-1.884-8.674-4.716-11.695
			c7.795-1.821,14.03-5.345,18.589-10.547c4.669-5.327,6.6-11.328,7.385-15.809C174.396,61.702,181.633,76.22,180.646,92.141z
			 M89.786,67.563c-4.475,0.136-9.103,0.276-13.618,0.276c-14.704,0-30.796-1.365-38.67-11.489
			c-0.313-0.403-1.145-1.472,0.073-3.961c4.829-9.874,31.871-24.217,63.254-24.217c19.296,0,37.243,5.497,52.021,15.915
			c-0.096,2.307-0.618,6.941-3.068,11.595c-4.451,8.453-13.096,13.191-25.681,14.107c-6.578-2.185-14.814-2.491-21.44-2.491
			C98.509,67.299,94.271,67.427,89.786,67.563z M40.422,127.783c8.087,0,20.399,1.262,31.175,2.598l-21.12,3.365
			c-6.056-1.563-12.038-3.953-14.707-5.764C36.806,127.871,38.297,127.783,40.422,127.783z M141.26,147.061
			c-16.255,8.128-32.592,12.249-48.56,12.249c-24.53,0-42.956-9.777-52.477-15.67c2.581-0.398,5.749-0.805,8.717-1.188
			c14.789-1.9,37.136-4.772,55.712-12.387c7.309-2.996,13.421-6.488,18.332-10.459c4.201,8.896,11.272,15.489,20.701,19.204
			c2.612,1.029,5.112,1.722,7.315,2.187C147.762,143.408,144.475,145.453,141.26,147.061z M157.971,135.162
			c-4.789-0.281-22.659-2.547-29.766-20.448c4.232-4.642,7.085-9.83,8.553-15.544c5.449,1.859,15.89,4.867,26.452,4.867
			c5.561,0,11.152-0.844,16.066-3.119C176.021,113.927,167.674,126.074,157.971,135.162z"/>
		<path d="M72.748,39.425c-5.876,0-10.656,4.78-10.656,10.656s4.78,10.656,10.656,10.656s10.656-4.78,10.656-10.656
			S78.624,39.425,72.748,39.425z M72.748,53.987c-2.154,0-3.906-1.752-3.906-3.906c0-2.154,1.753-3.906,3.906-3.906
			c2.154,0,3.906,1.752,3.906,3.906C76.654,52.235,74.902,53.987,72.748,53.987z"/>
	</g>
</g>
<g>
</g>
<g>
</g>
<g>
</g>
<g>
</g>
<g>
</g>
<g>
</g>
<g>
</g>
<g>
</g>
<g>
</g>
<g>
</g>
<g>
</g>
<g>
</g>
<g>
</g>
<g>
</g>
<g>
</g>
</svg>
